# xmcd
#
# Track frame offsets:
#	150
#	12027
#	24638
#	38404
#	47502
#	60747
#	74162
#	84987
#	95047
#	107180
#
# Disc length: 1585 seconds
#
# Revision: 0
# Processed by: cddbd v1.5.1PL0 Copyright (c) Steve Scherf et al.
# Submitted via: dBpowerAMP V4.0
#
DISCID=7c062f0a
DTITLE=Ralph Stanley and Friends - Ralph Stanley and Friends
DYEAR=2003
DGENRE=Bluegrass
TTITLE0=Lonesome River
TTITLE1=Glass of Wine
TTITLE2=I Long to See the Old Folks
TTITLE3=Loving You Too Well
TTITLE4=It's Never Too Late
TTITLE5=Mother No Longer Awaits Me at Home
TTITLE6=I Love No One But You
TTITLE7=Too Late To Cry 
TTITLE8=Our Last Goodbye
TTITLE9=We'll Be Sweethearts In Heaven
EXTD=
EXTT0=
EXTT1=
EXTT2=
EXTT3=
EXTT4=
EXTT5=
EXTT6=
EXTT7=
EXTT8=
EXTT9=
PLAYORDER=
